<svg xmlns="http://www.w3.org/2000/svg" viewBox="0 0 189.09 189.09"><defs><style>.cls-1{fill:#212745;}</style></defs><g id="Layer_2" data-name="Layer 2"><g id="Layer_1-2" data-name="Layer 1"><path class="cls-1" d="M14.79,0H75.72a2.44,2.44,0,0,0,.48.25c8.08,1.71,12.86,6.65,14,14.8s2.08,16.34,3.1,24.52q2.49,20,5,40.08,2.31,18.67,4.63,37.34c1.36,11,2.74,22,4.07,32.94.32,2.64-2.11,5.91-4.29,5.91-28.48,0-57,0-85.46-.07a18.76,18.76,0,0,1-7.64-1.67c-6.48-3-9.5-8.49-9.53-15.56C0,126.73,0,114.91,0,103.1Q0,60.37,0,17.64C0,11.73,2,6.66,6.92,3.32,9.24,1.76,12.15,1.08,14.79,0ZM57.91,83.92c1.16,5.85,2.27,11.58,3.45,17.3A5.55,5.55,0,1,0,72.21,99Q66.79,71.85,61.35,44.76c-.73-3.64-2.71-5.22-6.46-5.24q-4.8,0-9.6,0c-3.85,0-5.79,1.56-6.55,5.34Q33.35,71.69,28,98.53c-.76,3.79.92,6.68,4.22,7.36s5.84-1.42,6.59-5.13c1.13-5.59,2.25-11.18,3.39-16.84Z"/><path class="cls-1" d="M189.09,48.75V174.31a3.29,3.29,0,0,0-.26.68c-1.63,8.64-8.11,14.07-17,14.08q-40.25,0-80.5,0c-.44,0-.88-.09-1.53-.16,7.92-9.06,15.62-17.93,23.41-26.73a17.6,17.6,0,0,0,4.73-13.89c-.84-7.89-1.92-15.75-2.9-23.62q-2.47-20-5-39.91l-5-40.09c-.45-3.63-.88-7.26-1.33-10.91a5.09,5.09,0,0,1,.76-.14c22.65,0,45.3,0,67.94,0A16.12,16.12,0,0,1,185.36,40,20.75,20.75,0,0,1,189.09,48.75Zm-46.83,70.39c-.69.6-1.23,1.1-1.8,1.56-3.47,2.85-7,5.68-10.42,8.54a5.54,5.54,0,0,0,2.2,9.85,5.78,5.78,0,0,0,5.11-1.52L150,127.26l1.57,1.28c3.9,3.1,7.76,6.25,11.7,9.28,2.79,2.15,6.11,1.77,8-.76s1.45-5.8-1.27-8c-2.07-1.65-4.21-3.21-6.28-4.86s-4.06-3.33-6.15-5A71,71,0,0,0,171,95l1.43-.07a5.53,5.53,0,1,0-.22-11.06c-1.84,0-3.69,0-5.53,0H155.49c0-1.79,0-3.38,0-5,0-3.61-2.29-6.09-5.51-6.1s-5.52,2.47-5.56,6c0,1.64,0,3.27,0,5-5.41,0-10.57,0-15.73,0-3.82,0-6.33,2.13-6.42,5.39s2.24,5.37,5.93,5.73a1.94,1.94,0,0,1,1.39,1A72.88,72.88,0,0,0,142.26,119.14Z"/><path class="cls-1" d="M64.83,167H93.77l-18.33,20.2C68.42,184.13,65.55,179.28,64.83,167Z"/><path class="cls-1" d="M48.85,50.67c.48,0,.84-.07,1.2-.07s.72,0,1.2.06c1.47,7.32,2.92,14.58,4.4,22H44.47C45.93,65.31,47.38,58,48.85,50.67Z"/><path class="cls-1" d="M141,95h18.34A56.64,56.64,0,0,1,150,110.9,55.67,55.67,0,0,1,141,95Z"/></g></g></svg>