<svg xmlns="http://www.w3.org/2000/svg" viewBox="0 0 54.89 51.95"><defs><style>.cls-1{fill:#212745;}</style></defs><g id="Layer_2" data-name="Layer 2"><g id="Layer_1-2" data-name="Layer 1"><path class="cls-1" d="M41.81,44.69l-9.25-6.17a1,1,0,0,0-1.28.21l-2.69,3.46a2.88,2.88,0,0,1-3.7.76l-.5-.27c-1.8-1-4-2.2-8.48-6.64s-5.66-6.68-6.64-8.48L9,27.06a2.89,2.89,0,0,1,.76-3.7l3.46-2.69a1,1,0,0,0,.21-1.28L7.26,10.14A.94.94,0,0,0,6,9.85L2.12,12.17a3.76,3.76,0,0,0-1.71,2.2C-.86,19,.21,27.11,12.52,39.43S33,52.81,37.58,51.54a3.74,3.74,0,0,0,2.2-1.7L42.1,46A.94.94,0,0,0,41.81,44.69Z"/><path class="cls-1" d="M54.35,0H13.27a.51.51,0,0,0-.38.16.55.55,0,0,0-.16.38V14.81l2.33,3.5a2.92,2.92,0,0,1-.63,3.91L11,24.91a.93.93,0,0,0-.25,1.2l.28.51a24.44,24.44,0,0,0,3.27,4.77H54.35a.52.52,0,0,0,.54-.52V.54a.51.51,0,0,0-.16-.38A.49.49,0,0,0,54.35,0ZM26.88,18l-10,10.76A1,1,0,0,1,15.4,27.4l10-10.75a1,1,0,0,1,1.38,0A1,1,0,0,1,26.88,18Zm6.93-.77a3.24,3.24,0,0,1-2-.64L15.46,4.14a1,1,0,0,1-.18-1.38,1,1,0,0,1,1.37-.18L33,15a1.32,1.32,0,0,0,1.56,0L51,2.58a1,1,0,0,1,1.38.19,1,1,0,0,1-.19,1.37L35.77,16.57A3.2,3.2,0,0,1,33.81,17.21ZM52.24,28.79a1,1,0,0,1-1.39-.05L40.81,18a1,1,0,0,1,1.43-1.33l10,10.75A1,1,0,0,1,52.24,28.79Z"/></g></g></svg>