<svg xmlns="http://www.w3.org/2000/svg" viewBox="0 0 58 57.88"><defs><style>.cls-1{fill:#212745;}</style></defs><g id="Layer_2" data-name="Layer 2"><g id="Layer_1-2" data-name="Layer 1"><path class="cls-1" d="M27.3,0h3.4c.75.09,1.49.16,2.24.27a28.4,28.4,0,0,1,15.24,7A28.27,28.27,0,0,1,57.55,24c.19,1.09.3,2.19.45,3.29v3.39c0,.2-.09.4-.1.6a27.51,27.51,0,0,1-1.22,6.36A28.51,28.51,0,0,1,44.51,53.36a28.33,28.33,0,0,1-14.62,4.5A28.46,28.46,0,0,1,15,54.25a1.56,1.56,0,0,0-1.27-.14c-3.47,1-6.95,1.87-10.42,2.79a1.76,1.76,0,0,1-2.06-.64A1.87,1.87,0,0,1,1,54.59c.94-3.48,1.87-7,2.82-10.46A1.36,1.36,0,0,0,3.68,43,27.86,27.86,0,0,1,.42,33.64c-.16-1-.28-2-.42-3V27.47a5.52,5.52,0,0,0,.1-.71,26.93,26.93,0,0,1,1.09-6A28.86,28.86,0,0,1,8.11,8.89,28.41,28.41,0,0,1,24,.45C25.06.26,26.18.15,27.3,0ZM5.14,52.74c.28-.06.44-.09.6-.14,2.75-.73,5.5-1.45,8.24-2.2a2.08,2.08,0,0,1,1.64.19l.94.52a24.94,24.94,0,0,0,15.93,3,24.64,24.64,0,0,0,14.63-7.36,24.71,24.71,0,0,0,7-21.81A24.21,24.21,0,0,0,44.85,9.07,24.35,24.35,0,0,0,23.33,4.22c-9.83,2.33-16.12,8.6-19,18.24a23.71,23.71,0,0,0-.15,12.4,24.84,24.84,0,0,0,3,7.22,2.43,2.43,0,0,1,.26,2.05c-.35,1.18-.65,2.36-1,3.54Z"/><path class="cls-1" d="M35,44.6a20.4,20.4,0,0,1-12-4.26,24.16,24.16,0,0,1-8.3-10.5,15.78,15.78,0,0,1-1-9.84,9.29,9.29,0,0,1,4.62-6.2,3.89,3.89,0,0,1,4.53.47c1.15,1.06,2.27,2.16,3.33,3.31a3.94,3.94,0,0,1-.62,6.06c-.39.29-.82.54-1.2.85a.65.65,0,0,0-.21.5,10.75,10.75,0,0,0,3.42,6.39A11.37,11.37,0,0,0,33,33.78c.16,0,.41-.16.55-.32a18.76,18.76,0,0,1,1.85-2.1,3.68,3.68,0,0,1,4.57.06,48.86,48.86,0,0,1,3.89,3.86,3.78,3.78,0,0,1,.28,4.39,9.61,9.61,0,0,1-7.24,4.76C36.15,44.55,35.39,44.57,35,44.6ZM16.84,23.2A12.9,12.9,0,0,0,18,28.68,20.74,20.74,0,0,0,31,40.49a11.39,11.39,0,0,0,5.53.44A6.06,6.06,0,0,0,41,38.09a.62.62,0,0,0-.06-.86L38,34.35c-.34-.33-.63-.25-.89.11a14.37,14.37,0,0,0-.89,1.31c-.8,1.6-2,1.94-3.71,1.56a15.57,15.57,0,0,1-8.11-4.07,15.6,15.6,0,0,1-3.94-8.59A2.35,2.35,0,0,1,21.75,22c.6-.35,1.15-.78,1.73-1.18.37-.26.43-.56.09-.89L20.69,17a.56.56,0,0,0-.81-.08,10.26,10.26,0,0,0-1.34,1.11A7.35,7.35,0,0,0,16.84,23.2Z"/></g></g></svg>