<svg xmlns="http://www.w3.org/2000/svg" viewBox="0 0 60.58 60.55"><defs><style>.cls-1{fill:#212745;}</style></defs><g id="Layer_2" data-name="Layer 2"><g id="Layer_1-2" data-name="Layer 1"><path class="cls-1" d="M57.8,55.05h-55a2.75,2.75,0,0,0,0,5.5H57.8a2.75,2.75,0,1,0,0-5.5Z"/><path class="cls-1" d="M6.19,47.89a2.76,2.76,0,0,0,0,5.51H54.36a2.76,2.76,0,1,0,0-5.51h-.69V23.12h.69a1.38,1.38,0,1,0,0-2.75H6.19a1.38,1.38,0,0,0,0,2.75h.69V47.89Zm42-24.77V47.89H39.91V23.12Zm-13.76,0V47.89H26.15V23.12Zm-22,0h8.25V47.89H12.39Z"/><path class="cls-1" d="M2.75,17.9H57.83a2.76,2.76,0,0,0,.89-5.37L31.41.24a2.78,2.78,0,0,0-2.26,0L1.62,12.63A2.76,2.76,0,0,0,2.75,17.9Z"/></g></g></svg>